Coordinates
version=1
nRows=14
nColumns=40
inDegrees=yes

Units are S.I. units (second, meters, Newtons, ...)
Angles are in degrees.

endheader
time	pelvis_tilt	pelvis_list	pelvis_rotation	pelvis_tx	pelvis_ty	pelvis_tz	hip_flexion_r	hip_adduction_r	hip_rotation_r	knee_angle_r	knee_angle_r_beta	ankle_angle_r	subtalar_angle_r	mtp_angle_r	hip_flexion_l	hip_adduction_l	hip_rotation_l	knee_angle_l	knee_angle_l_beta	ankle_angle_l	subtalar_angle_l	mtp_angle_l	lumbar_extension	lumbar_bending	lumbar_rotation	arm_flex_r	arm_add_r	arm_rot_r	elbow_flex_r	pro_sup_r	wrist_flex_r	wrist_dev_r	arm_flex_l	arm_add_l	arm_rot_l	elbow_flex_l	pro_sup_l	wrist_flex_l	wrist_dev_l
     28.27000000	     -3.75713880	     -1.82513453	      1.97054965	      0.99682406	      0.92013693	      0.40061101	     15.27017291	     -8.55085920	    -11.80144386	     52.19499095	     52.19499095	     15.23784997	    -19.52048602	     18.44880116	     19.02978673	      2.73748534	      1.19967317	     28.56084593	     28.56084593	     16.22100515	    -15.63245727	      6.22644184	     -9.24611365	      4.20099208	      3.82349110	     42.69802632	    -10.41045655	     -7.29006905	     42.24719005	     45.45118744	      0.00000000	      0.00000000	      5.84149286	    -12.24110103	     14.96196686	     45.12261098	     45.52200639	      0.00000000	      0.00000000
     28.29492857	     -3.60367302	     -1.65599203	      1.42852734	      0.99570137	      0.91814573	      0.39843998	     16.67999343	     -8.40221582	    -10.76948567	     54.06563856	     54.06563856	     15.34364035	    -19.49356585	     18.17074461	     19.07902025	      3.01255685	      0.89076486	     29.52158341	     29.52158341	     16.75921833	    -16.16890494	      6.05115243	     -9.30504763	      4.27781139	      3.52360470	     38.68609711	    -10.39552429	     -7.31232039	     40.49282609	     45.49867588	      0.00000000	      0.00000000	      6.97514788	    -12.36731907	     14.49707219	     46.10063487	     45.59201155	      0.00000000	      0.00000000
     28.31985714	     -3.41816585	     -1.55620836	      0.84013565	      0.99455944	      0.91637183	      0.39648006	     17.99913617	     -8.14732183	     -9.75816514	     55.58397276	     55.58397276	     15.46470838	    -19.46736086	     17.98546935	     19.04641868	      3.18626905	      0.52678966	     30.43200520	     30.43200520	     17.38551203	    -16.62196758	      6.06387612	     -9.44119787	      4.41375224	      3.47830166	     34.43176339	    -10.64604518	     -7.33915002	     38.36025783	     45.56070233	      0.00000000	      0.00000000	      8.24957778	    -12.45286024	     13.79537514	     47.34901692	     45.68938461	      0.00000000	      0.00000000
     28.34478571	     -3.22746448	     -1.51693040	      0.21394934	      0.99334331	      0.91493500	      0.39487630	     19.24836592	     -7.82569248	     -8.73412321	     56.68767481	     56.68767481	     15.57809922	    -19.43623371	     17.82732028	     18.91900340	      3.26434079	      0.15441411	     31.18365198	     31.18365198	     18.03318070	    -16.93765331	      6.21147541	     -9.64220145	      4.59518184	      3.46258035	     30.11045373	    -10.95403890	     -7.36008840	     36.06981282	     45.62845372	      0.00000000	      0.00000000	      9.58852829	    -12.57030266	     12.94841778	     48.66583097	     45.80034355	      0.00000000	      0.00000000
     28.36971429	     -3.00527025	     -1.55097254	     -0.43151554	      0.99205922	      0.91408232	      0.39367206	     20.33289386	     -7.45700373	     -7.74968171	     57.22637885	     57.22637885	     15.79482594	    -19.40026776	     17.95755290	     18.70903960	      3.25742126	     -0.18056905	     31.89770197	     31.89770197	     19.36258208	    -16.99078763	      8.25950233	     -9.95065527	      4.85386344	      2.95275044	     26.46077346	    -10.85428810	     -7.55119541	     32.69978164	     45.78151814	      0.00000000	      0.00000000	     10.28159153	    -12.59414230	      9.94519409	     50.91570896	     46.13428881	      0.00000000	      0.00000000
     28.39464286	     -2.90415428	     -1.66473592	     -1.08407031	      0.99056334	      0.91356619	      0.39303932	     21.43569886	     -7.07432182	     -6.83639028	     57.20312962	     57.20312962	     15.89739223	    -19.36880146	     17.65154054	     18.44946075	      3.09372682	     -0.59460902	     32.18556264	     32.18556264	     19.72967709	    -17.19586067	      8.18937076	    -10.17187202	      5.15916442	      2.98846432	     22.11622099	    -11.23766198	     -7.57051265	     30.62015361	     45.84141137	      0.00000000	      0.00000000	     11.76363372	    -12.87474540	      9.16098133	     52.18045854	     46.23404168	      0.00000000	      0.00000000
     28.41957143	     -2.82326111	     -1.85825783	     -1.75302484	      0.98888576	      0.91366331	      0.39298088	     22.41182176	     -6.66744018	     -5.96793830	     56.55793005	     56.55793005	     15.97743775	    -19.33348555	     17.28605218	     18.07675119	      2.80545610	     -1.00770929	     32.20768900	     32.20768900	     20.03517776	    -17.32498831	      8.26050571	    -10.45519838	      5.52639464	      3.01981000	     17.86411957	    -11.60875747	     -7.60724255	     28.71171295	     45.89693059	      0.00000000	      0.00000000	     13.18182179	    -13.23660964	      8.15943790	     53.70688889	     46.35354930	      0.00000000	      0.00000000
     28.44450000	     -2.86305291	     -2.10003696	     -2.37149291	      0.98690818	      0.91422371	      0.39349177	     23.37113697	     -6.28881637	     -5.21629408	     55.32299614	     55.32299614	     16.10477200	    -19.25980189	     17.12105399	     17.73076694	      2.43561238	     -1.36566958	     31.99526697	     31.99526697	     20.19577993	    -17.41847492	      8.31825165	    -10.62345288	      5.93654382	      2.12390677	     14.13098634	    -11.47533496	     -7.63208441	     27.32239096	     45.92751783	      0.00000000	      0.00000000	     14.35270589	    -14.39064131	      7.43684619	     54.44187069	     46.43269853	      0.00000000	      0.00000000
     28.46942857	     -2.94691775	     -2.41817508	     -3.10182438	      0.98468301	      0.91529560	      0.39453575	     24.22006690	     -5.84509284	     -4.43162818	     53.48381916	     53.48381916	     15.93870113	    -19.19403191	     16.37895293	     17.30195007	      1.91686016	     -1.85025600	     31.52839363	     31.52839363	     20.28107748	    -17.37920525	      8.47528290	    -10.93938177	      6.33829578	      2.97898749	      9.65886935	    -12.24653525	     -7.68813811	     25.62021357	     45.97618984	      0.00000000	      0.00000000	     15.89302471	    -14.26029001	      5.95170641	     57.28490069	     46.60783561	      0.00000000	      0.00000000
     28.49435714	     -3.25255440	     -2.64696575	     -3.75235563	      0.98207589	      0.91634857	      0.39614697	     25.21029438	     -5.53671198	     -3.74718582	     51.27499690	     51.27499690	     15.98256407	    -18.98192999	     16.22792170	     17.13139495	      1.44715570	     -2.33016061	     31.03071876	     31.03071876	     20.25645864	    -17.33096107	      8.58131148	    -10.90747185	      6.65045846	      2.00367195	      6.31396732	    -12.21295740	     -7.74840281	     24.55118967	     45.99855132	      0.00000000	      0.00000000	     17.10094497	    -15.70212823	      5.10967457	     58.10323568	     46.69453919	      0.00000000	      0.00000000
     28.51928571	     -3.37326348	     -3.07555132	     -4.51210384	      0.97953506	      0.91822890	      0.39830734	     25.65467623	     -4.97931195	     -3.08538771	     48.33433969	     48.33433969	     15.28075268	    -18.81928746	     14.49506948	     16.47658555	      0.72700840	     -2.88075302	     30.07106833	     30.07106833	     20.12859500	    -17.17420460	      8.57489155	    -11.38683056	      7.10403283	      2.84940899	      1.90547744	    -12.71434760	     -7.86905190	     23.85111650	     46.00932931	      0.00000000	      0.00000000	     18.26697375	    -15.57805999	      3.04426213	     62.17639193	     46.92568315	      0.00000000	      0.00000000
     28.54421429	     -3.72858397	     -3.32149225	     -5.19931203	      0.97675903	      0.91967636	      0.40069133	     26.08090061	     -4.77439849	     -2.79574904	     44.79766203	     44.79766203	     13.02095491	    -18.58232775	      8.29551921	     16.13060046	      0.16553011	     -3.47018608	     29.14007988	     29.14007988	     19.62026693	    -17.05364425	      7.68819375	    -11.58943365	      7.37797958	      1.55471338	     -1.75739902	    -12.85943283	     -7.86856821	     25.89112838	     45.92136532	      0.00000000	      0.00000000	     17.63769896	    -16.71218148	     -1.01648000	     67.35736681	     47.31058564	      0.00000000	      0.00000000
     28.56914286	     -4.06198605	     -3.54556081	     -5.90298940	      0.97394332	      0.92119990	      0.40354985	     26.34738294	     -4.48009202	     -2.39748842	     41.11389106	     41.11389106	     11.30704746	    -18.00616718	      4.19873294	     15.72038193	     -0.39884624	     -4.10036350	     28.15625530	     28.15625530	     19.18789094	    -16.88463927	      7.07431725	    -11.72314900	      7.59126517	      1.32021587	     -5.09570244	    -13.15691041	     -7.01518374	     25.83207881	     45.87535680	      0.00000000	      0.00000000	     18.58876182	    -17.54232485	     -2.64891941	     70.19771610	     47.48953416	      0.00000000	      0.00000000
     28.59407143	     -4.38349626	     -3.74812486	     -6.58457223	      0.97110833	      0.92261151	      0.40680749	     26.56889246	     -4.12254436	     -1.92079115	     37.63705122	     37.63705122	     10.78503782	    -16.54554128	      3.85673156	     15.33315573	     -0.95918640	     -4.70966496	     27.26868540	     27.26868540	     19.01558169	    -16.61375893	      7.10953826	    -11.84908772	      7.76270945	      1.44000051	     -8.04384773	    -13.26396111	     -6.93924446	     25.13278953	     45.88168457	      0.00000000	      0.00000000	     20.07704934	    -18.29874601	     -3.52690284	     72.23982635	     47.59861506	      0.00000000	      0.00000000
